# xmcd
#
# Track frame offsets:
#	150
#	14066
#	30170
#	45903
#	71874
#	90527
#	110705
#	130644
#	148961
#	167760
#	185746
#	210691
#	229992
#	255938
#
# Disc length: 3780 seconds
#
# Revision: 0
# Processed by: cddbd v1.5.2PL0 Copyright (c) Steve Scherf et al.
# Submitted via: audiograbber 1.83.01
#
DISCID=c40ec20e
DTITLE=Van Zant - Red White and Blue
DYEAR=2016
DGENRE=Rock
TTITLE0=Takin´ up Space
TTITLE1=Ain´t Nobody gonna tell me what to do
TTITLE2=Sweet Mama
TTITLE3=Wild Eyed Southern Boys
TTITLE4=Things i miss the most
TTITLE5=I know my History
TTITLE6=Help Somebody
TTITLE7=Plaine Jane
TTITLE8=I can´t help myself
TTITLE9=I´m doin´ alright
TTITLE10=Red White and Blue
TTITLE11=My Kind of Country
TTITLE12=Call me the Breeze
TTITLE13=Sweet home Alabama
EXTD=
EXTT0=
EXTT1=
EXTT2=
EXTT3=
EXTT4=
EXTT5=
EXTT6=
EXTT7=
EXTT8=
EXTT9=
EXTT10=
EXTT11=
EXTT12=
EXTT13=
PLAYORDER=
